<svg xmlns="http://www.w3.org/2000/svg" width="24" height="24" style=""><rect id="backgroundrect" width="100%" height="100%" x="0" y="0" fill="none" stroke="none"/>
  
<g class="currentLayer" style=""><title>Layer 1</title><path d="M5.05850338218886,9.614543937668259 L16.09119292266972,9.614543937668259 L11.271181735781028,4.449958488798487 C10.885975923714113,4.03721497956505 10.885975923714113,3.3598922977460646 11.271181735781028,2.9471487885126066 C11.656387547847956,2.534405279279163 12.278643090417603,2.534405279279163 12.663848902484524,2.9471487885126066 L19.1728394192051,9.921455777867493 C19.558045231272025,10.334199287100944 19.558045231272025,11.000938802016492 19.1728394192051,11.413682311249943 L12.663848902484524,18.38798930060483 C12.278643090417603,18.80073280983828 11.656387547847956,18.80073280983828 11.271181735781028,18.38798930060483 C10.885975923714113,17.975245791371393 10.885975923714113,17.3085062764558 11.271181735781028,16.895762767222365 L16.09119292266972,11.731177318352593 L5.05850338218886,11.731177318352593 C4.515264416453455,11.731177318352593 4.070796171760854,11.254934807698618 4.070796171760854,10.672860628010426 C4.070796171760854,10.090786448322234 4.515264416453455,9.614543937668259 5.05850338218886,9.614543937668259 z" class="" id="svg_3"/></g></svg>