<?xml version="1.0" encoding="UTF-8" standalone="no"?>
<svg
   xmlns:dc="http://purl.org/dc/elements/1.1/"
   xmlns:cc="http://creativecommons.org/ns#"
   xmlns:rdf="http://www.w3.org/1999/02/22-rdf-syntax-ns#"
   xmlns:svg="http://www.w3.org/2000/svg"
   xmlns="http://www.w3.org/2000/svg"
   viewBox="0 0 2058.6667 336"
   height="336"
   width="2058.6667"
   xml:space="preserve"
   id="svg2"
   version="1.1"><metadata
     id="metadata8"><rdf:RDF><cc:Work
         rdf:about=""><dc:format>image/svg+xml</dc:format><dc:type
           rdf:resource="http://purl.org/dc/dcmitype/StillImage" /></cc:Work></rdf:RDF></metadata><defs
     id="defs6"><clipPath
       id="clipPath20"
       clipPathUnits="userSpaceOnUse"><path
         style="clip-rule:evenodd"
         id="path18"
         d="m 1944.34,1894.18 688.47,494.07 c 0,0 91.78,-181.29 67.08,-463.29 -24.71,-282 -186.23,-665.09 -781.96,-982.812 10.46,178.282 -8.81,357.062 -57.01,529.032 32.16,27.86 58.45,61.84 77.35,99.95 37.61,74.88 48.66,160.31 31.35,242.29 -5.62,27.81 -14.35,54.9 -26.03,80.76" /></clipPath><clipPath
       id="clipPath26"
       clipPathUnits="userSpaceOnUse"><path
         id="path24"
         d="M 0,0 H 14670 V 2394.33 H 0 Z" /></clipPath><clipPath
       id="clipPath36"
       clipPathUnits="userSpaceOnUse"><path
         style="clip-rule:evenodd"
         id="path34"
         d="m 1357.16,9.5 c 484.19,403.047 616.64,901.105 450.94,1479.54 164.75,111.17 167.98,375.87 0,506.23 l -5.71,228.03 -117.24,-133.01 c -217.22,34.67 -438.56,34.67 -655.78,0 l -126.179,137.19 1.141,-228.03 C 721.527,1854.27 737.301,1591.85 907.375,1486.38 720.387,879.629 878.871,390.313 1356.59,9.69141" /></clipPath><clipPath
       id="clipPath42"
       clipPathUnits="userSpaceOnUse"><path
         id="path40"
         d="M 0,0 H 14670 V 2394.33 H 0 Z" /></clipPath><clipPath
       id="clipPath52"
       clipPathUnits="userSpaceOnUse"><path
         style="clip-rule:evenodd"
         id="path50"
         d="M 1356.21,1625.29 1246,1529.9 l 109.07,-220.24 110.22,219.29 z" /></clipPath><clipPath
       id="clipPath58"
       clipPathUnits="userSpaceOnUse"><path
         id="path56"
         d="M 0,0 H 14670 V 2394.33 H 0 Z" /></clipPath><clipPath
       id="clipPath68"
       clipPathUnits="userSpaceOnUse"><path
         style="clip-rule:evenodd"
         id="path66"
         d="m 1068.89,1938.27 c 110.03,0 199.53,-95.02 199.53,-212.84 0,-117.81 -89.5,-212.82 -199.53,-212.82 -110.019,0 -199.331,95.01 -199.331,212.82 0,117.82 89.312,212.84 199.331,212.84" /></clipPath><clipPath
       id="clipPath74"
       clipPathUnits="userSpaceOnUse"><path
         id="path72"
         d="M 0,0 H 14670 V 2394.33 H 0 Z" /></clipPath><clipPath
       id="clipPath84"
       clipPathUnits="userSpaceOnUse"><path
         style="clip-rule:evenodd"
         id="path82"
         d="m 1162.58,1733.04 c 45.06,-1.35 80.52,-38.93 79.24,-84 1.17,-44.95 -34.29,-82.36 -79.24,-83.61 -44.95,1.25 -80.41,38.66 -79.24,83.61 -1.28,45.07 34.18,82.65 79.24,84" /></clipPath><clipPath
       id="clipPath90"
       clipPathUnits="userSpaceOnUse"><path
         id="path88"
         d="M 0,0 H 14670 V 2394.33 H 0 Z" /></clipPath><clipPath
       id="clipPath100"
       clipPathUnits="userSpaceOnUse"><path
         style="clip-rule:evenodd"
         id="path98"
         d="m 1638.79,1938.27 c -110.03,0 -199.34,-95.02 -199.34,-212.84 0,-117.81 89.31,-212.82 199.34,-212.82 110.02,0 199.52,95.01 199.52,212.82 0,117.82 -90.07,212.84 -199.52,212.84" /></clipPath><clipPath
       id="clipPath106"
       clipPathUnits="userSpaceOnUse"><path
         id="path104"
         d="M 0,0 H 14670 V 2394.33 H 0 Z" /></clipPath><clipPath
       id="clipPath116"
       clipPathUnits="userSpaceOnUse"><path
         style="clip-rule:evenodd"
         id="path114"
         d="m 1545.1,1733.04 c -21.62,-0.65 -42.1,-9.86 -56.93,-25.62 -14.83,-15.75 -22.79,-36.75 -22.12,-58.38 -0.61,-21.57 7.37,-42.5 22.2,-58.18 14.82,-15.68 35.28,-24.83 56.85,-25.43 44.95,1.25 80.41,38.66 79.24,83.61 1.28,45.07 -34.18,82.65 -79.24,84" /></clipPath><clipPath
       id="clipPath122"
       clipPathUnits="userSpaceOnUse"><path
         id="path120"
         d="M 0,0 H 14670 V 2394.33 H 0 Z" /></clipPath><clipPath
       id="clipPath132"
       clipPathUnits="userSpaceOnUse"><path
         style="clip-rule:evenodd"
         id="path130"
         d="M 765.043,1895.32 78.2891,2389.39 c 0,0 -91.7813,-181.29 -67.2657,-463.29 24.5118,-281.99 185.6526,-663.38 777.0156,-980.151 -6.871,170.161 13.988,340.301 61.758,503.761 1.328,6.65 2.848,13.3 4.371,19 -35.914,28.38 -65.387,64.07 -86.465,104.7 -37.609,73.79 -48.488,158.34 -30.781,239.25 6.008,28.58 15.453,56.34 28.121,82.66" /></clipPath><clipPath
       id="clipPath138"
       clipPathUnits="userSpaceOnUse"><path
         id="path136"
         d="M 0,0 H 14670 V 2394.33 H 0 Z" /></clipPath><clipPath
       id="clipPath148"
       clipPathUnits="userSpaceOnUse"><path
         id="path146"
         d="m 6166.34,408.176 c 1.57,-60.324 -20.05,-118.953 -60.43,-163.801 -37.31,-42.664 -91.28,-67.059 -147.96,-66.879 -56.68,0.184 -110.49,24.926 -147.53,67.828 -40.76,44.602 -62.74,103.207 -61.38,163.614 -1.83,60.523 20.07,119.371 61,163.992 38.62,43.121 94.15,67.211 152.02,65.937 56.19,0.899 109.82,-23.437 146.13,-66.32 39.44,-45.488 60.21,-104.203 58.15,-164.371 z m -114.02,-10.071 c 0,85.7 -10.26,148.981 -30.4,190.024 -10.86,25.066 -35.98,40.906 -63.28,39.906 -29.26,0 -52.64,-19.004 -70.12,-57.008 -19.39,-47.652 -28.33,-98.906 -26.22,-150.308 0,-91.215 15.52,-159.371 46.56,-204.469 12.56,-18.984 34.28,-29.844 57,-28.504 26.78,-1.109 51.14,15.391 60.05,40.664 20.07,54.235 29.18,111.914 26.79,169.695 z" /></clipPath><clipPath
       id="clipPath154"
       clipPathUnits="userSpaceOnUse"><path
         id="path152"
         d="M 0,0 H 14670 V 2394.33 H 0 Z" /></clipPath><clipPath
       id="clipPath164"
       clipPathUnits="userSpaceOnUse"><path
         id="path162"
         d="m 6630.2,411.406 c 1.12,-44.75 -10.47,-88.902 -33.45,-127.316 -23.83,-37.82 -59.51,-66.688 -101.47,-82.094 -43.72,-13.465 -89.42,-19.312 -135.11,-17.289 h -157.53 c -6.46,0 -9.69,1.707 -9.69,5.129 0,4.371 5.89,6.269 18.05,5.891 18.49,0 29.7,3.23 33.63,9.691 2.58,12.941 3.41,26.172 2.47,39.336 v 328.934 c 0.95,11.726 -0.34,23.527 -3.8,34.777 -4.37,7.789 -15.39,11.398 -33.06,11.019 -9.51,0 -14.06,1.711 -14.06,6.461 0,4.75 2.84,5.891 8.93,5.891 h 11.59 c 25.84,0 50.93,0 75.06,0 h 80 c 78.42,0 138.53,-16.152 180.33,-48.457 52.62,-41.082 81.79,-105.32 78.11,-171.973 z m -111.74,0 c 0,71.196 -10.51,123.328 -31.55,156.391 -21.82,33.258 -59.89,52.148 -99.57,49.406 -11.03,1.008 -22.13,-0.758 -32.3,-5.129 -6.84,-4.371 -10.27,-14.441 -10.27,-30.406 V 250.453 c -1.91,-15.957 -0.16,-32.14 5.14,-47.316 10.32,-6.016 22.34,-8.485 34.2,-7.032 89.19,-0.253 133.78,71.387 133.78,214.922 z" /></clipPath><clipPath
       id="clipPath170"
       clipPathUnits="userSpaceOnUse"><path
         id="path168"
         d="M 0,0 H 14670 V 2394.33 H 0 Z" /></clipPath><clipPath
       id="clipPath180"
       clipPathUnits="userSpaceOnUse"><path
         style="clip-rule:evenodd"
         id="path178"
         d="m 7048.25,625.375 c 0,-3.039 -2.09,-4.75 -6.46,-5.129 -14.71,0.828 -29.41,-1.773 -42.95,-7.601 -9.26,-10.325 -15.79,-22.801 -19,-36.297 -3.42,-9.5 -8.74,-23.754 -15.58,-42.754 -22.8,-63.344 -59.6,-170.199 -110.4,-320.574 -7.04,-21.473 -11.98,-32.305 -14.83,-32.305 -2.85,0 -7.22,3.992 -9.69,11.781 -5.7,17.484 -12.73,38.004 -21.47,60.047 -12.92,34.777 -30.21,81.141 -52.26,138.91 -9.5,25.274 -24.13,63.09 -43.9,114.016 -10.83,27.176 -21.66,57.008 -32.3,90.453 -3.39,16.324 -18.34,27.617 -34.96,26.414 h -21.29 c -5.13,0 -7.79,1.898 -7.79,5.508 0,3.613 7.79,5.511 23.18,5.511 h 187.56 c 8.17,0 12.16,-1.898 12.16,-5.89 0,-3.988 -7.6,-5.32 -22.61,-5.699 -24.52,0 -36.87,-4.371 -36.87,-11.782 0,0 3.8,-12.164 11.03,-34.207 33.06,-98.304 62.07,-178.687 87.03,-241.14 5.7,13.871 15.96,42.375 31.16,85.89 3.8,11.782 12.92,38.004 27.17,78.86 13.55,34.543 23.49,70.394 29.65,106.984 1.04,6.336 -3.19,12.336 -9.5,13.492 -2.66,0 -12.54,0 -29.83,1.332 -8.56,0 -12.93,2.09 -12.93,6.461 0,4.371 3.04,5.699 9.13,5.699 h 116.86 c 6.46,-0.949 9.69,-3.23 9.69,-7.98 z" /></clipPath><clipPath
       id="clipPath186"
       clipPathUnits="userSpaceOnUse"><path
         id="path184"
         d="M 0,0 H 14670 V 2394.33 H 0 Z" /></clipPath><clipPath
       id="clipPath196"
       clipPathUnits="userSpaceOnUse"><path
         style="clip-rule:evenodd"
         id="path194"
         d="m 7423.55,298.34 c 0,0 0,-20.902 0,-60.047 0,-20.715 0,-35.535 -0.95,-44.656 -0.95,-9.121 0,-13.301 0,-12.922 -114.01,5.32 -213.21,6.652 -298.53,4.558 h -55.11 c -7.79,0 -11.59,1.711 -11.59,4.942 0,3.23 0.95,3.801 2.85,4.183 1.91,0.379 8.55,1.137 19.01,1.899 20.33,1.328 31.16,7.031 32.87,17.48 0.99,6.286 1.43,12.645 1.33,19.004 v 327.035 c 0,25.844 0,40.094 0,42.567 0.24,5.508 -2.16,10.801 -6.46,14.25 -7.52,3.293 -15.77,4.601 -23.94,3.801 -13.31,0 -19.96,2.089 -19.96,5.89 0,3.801 5.89,6.461 17.68,6.461 h 49.4 c 79.24,1.711 144.04,2.281 194.59,1.332 h 43.89 c 9.51,0 21.1,0 34.78,1.899 l 5.89,-70.309 c 2.09,-22.422 3.23,-36.293 3.23,-41.426 0.26,-1.781 -0.34,-3.578 -1.61,-4.851 -1.27,-1.27 -3.07,-1.867 -4.85,-1.61 -4.37,0 -7.22,5.7 -8.36,16.914 -1.8,25.895 -15.03,49.645 -36.1,64.797 -27.07,15.383 -58.07,22.457 -89.13,20.332 -11.97,0 -32.87,0 -62.14,-1.898 V 427.938 c 47.51,0 77.54,2.851 89.89,10.07 12.35,7.222 20.71,25.465 25.08,55.301 2.09,15.769 5.32,23.75 9.69,23.75 4.37,0 5.89,-3.797 5.89,-11.59 0,-7.789 0,-23.754 -2.09,-47.696 0,-8.363 0,-19.003 0,-33.066 0,-37.055 0,-64.988 1.33,-83.992 0.24,-3.223 0.24,-6.465 0,-9.692 0,-5.128 -1.9,-7.789 -5.89,-7.789 -3.99,0 -4.94,0 -5.7,3.039 -1.97,6.832 -3.31,13.829 -3.99,20.903 -0.78,20.254 -6.95,39.933 -17.86,57.008 -7.6,7.601 -24.9,11.402 -52.26,11.402 h -44.09 V 198.387 h 41.43 c 47.5,0 76.01,1.902 86.84,3.23 13.57,1.848 26.56,6.719 38.01,14.254 9.7,7.203 17.41,16.746 22.42,27.742 5.96,17.887 10.35,36.266 13.11,54.918 1.33,6.461 3.61,9.692 6.65,9.692 3.04,0 4.75,-4.18 4.75,-9.883 z" /></clipPath><clipPath
       id="clipPath202"
       clipPathUnits="userSpaceOnUse"><path
         id="path200"
         d="M 0,0 H 14670 V 2394.33 H 0 Z" /></clipPath><clipPath
       id="clipPath212"
       clipPathUnits="userSpaceOnUse"><path
         style="clip-rule:evenodd"
         id="path210"
         d="m 7820.89,512.121 c 0,-3.422 -1.51,-5.133 -4.55,-5.133 -4.75,0 -9.13,8.364 -12.93,24.895 -3.79,25.094 -15.05,48.465 -32.3,67.078 -19.18,13.559 -42.54,19.887 -65.94,17.863 h -30.4 V 224.039 c 0,-10.828 3.61,-17.672 9.12,-20.711 14.81,-4.738 30.24,-7.297 45.79,-7.601 4.75,0 7.23,-2.469 7.23,-5.891 0,-3.422 -3.43,-6.461 -10.46,-6.461 h -9.69 c -6.46,0 -11.78,0 -16.15,0 l -66.51,1.898 -109.83,-3.23 c -6.09,0 -8.93,1.711 -8.93,5.133 0,3.422 0,4.179 2.46,4.558 7.07,0.829 14.17,1.274 21.29,1.332 23.75,0 36.48,6.461 38,16.914 0,5.508 1.33,49.407 1.33,131.497 v 274.015 h -16.91 c -26.74,2.285 -53.49,-4.402 -76.01,-19 -18.14,-17.887 -29.03,-41.844 -30.59,-67.269 -3.04,-19.004 -6.84,-28.313 -11.59,-28.313 -4.76,0 -5.89,2.66 -5.89,7.789 0,5.133 0,15.391 2.66,35.535 3.41,42.188 5.5,71.071 6.46,86.653 h 57 44.85 c 28.69,0 65.18,0 109.46,0 h 65.93 53.02 c 14.25,0 24.89,0 32.3,0 1.4,-27.996 4.63,-63.598 9.69,-106.797 1.53,-5.699 2.09,-11.02 2.09,-11.969 z" /></clipPath><clipPath
       id="clipPath218"
       clipPathUnits="userSpaceOnUse"><path
         id="path216"
         d="M 0,0 H 14670 V 2394.33 H 0 Z" /></clipPath><clipPath
       id="clipPath228"
       clipPathUnits="userSpaceOnUse"><path
         style="clip-rule:evenodd"
         id="path226"
         d="m 8286.65,625.184 c 0,-2.09 -1.71,-3.418 -4.75,-3.801 -3.04,-0.379 -14.44,-1.137 -33.83,-1.899 -11.4,0 -18.05,-2.851 -19,-7.031 -2.47,-13.66 -3.11,-27.594 -1.9,-41.426 v -380.05 c 0,-7.223 -1.52,-11.024 -4.37,-11.024 -2.85,0 -36.1,35.727 -94.06,106.985 -57.96,71.261 -121.62,152.023 -190.98,244.566 V 218.148 c 0,-8.929 2.85,-14.628 8.55,-16.722 10.25,-3.61 21.07,-5.348 31.93,-5.129 14.44,0 22.42,-1.141 24.13,-3.231 0.28,-0.867 0.28,-1.796 0,-2.66 0,-3.422 -3.23,-5.133 -9.69,-5.133 -3.23,-0.234 -6.47,-0.234 -9.69,0 -25.85,0 -42,1.332 -48.46,1.332 -15.2,0 -34.96,0 -59.48,-1.332 h -15.58 c -6.46,0 -9.69,1.711 -9.69,5.133 0,3.039 9.5,5.129 28.51,6.461 21.85,1.711 34.58,5.129 38,10.262 3.38,15.273 4.47,30.961 3.23,46.555 v 266.039 c 0,26.98 -0.38,43.324 -1.14,49.023 -1.25,16.359 -9.49,31.387 -22.61,41.238 -16.47,8.071 -34.7,11.864 -53.02,11.02 -6.84,0 -10.45,2.473 -10.45,6.082 0,3.609 3.04,6.269 9.12,6.269 l 27.74,-1.328 c 7.79,0 19,0 34.97,0 31.92,0 57.01,0 77.53,2.09 l 227.46,-294.351 v 256.343 c 0,10.454 -1.71,16.914 -5.13,19.004 -6.75,3.649 -14.38,5.36 -22.04,4.942 l -27.75,1.14 c -5.13,0 -7.79,2.09 -7.79,4.559 0,2.473 3.99,5.32 11.78,5.32 h 42 c 43.33,0 68.79,0 76.01,0 7.22,0 10.45,-2.277 10.45,-5.89 z" /></clipPath><clipPath
       id="clipPath234"
       clipPathUnits="userSpaceOnUse"><path
         id="path232"
         d="M 0,0 H 14670 V 2394.33 H 0 Z" /></clipPath><clipPath
       id="clipPath244"
       clipPathUnits="userSpaceOnUse"><path
         style="clip-rule:evenodd"
         id="path242"
         d="m 8511.64,190.027 c 0,-3.8 -2.85,-5.511 -8.36,-5.511 -2.78,-0.211 -5.58,-0.211 -8.36,0 -25.85,1.328 -48.08,1.898 -66.51,1.898 -18.43,0 -47.89,0 -85.32,-1.898 h -27.75 c -6.46,0 -9.69,1.898 -9.69,5.699 -0.11,2.031 1.4,3.793 3.42,3.992 2.47,0 10.64,0 24.89,1.328 14.26,1.332 21.1,6.461 23.38,11.781 3.08,17.176 4.16,34.649 3.23,52.071 V 594.02 c 0,7.793 0,11.402 0,11.023 0,10.832 -10.83,16.152 -32.3,16.152 -11.98,0 -19.01,1.52 -19.01,4.559 0,3.043 0,4.754 2.66,5.133 5.57,0.414 11.16,0.414 16.72,0 h 169.89 c 5.7,0 8.36,-1.711 8.36,-4.942 0.29,-2.011 -0.92,-3.933 -2.85,-4.562 -6.27,-1.078 -12.64,-1.586 -19,-1.52 -13.31,-0.949 -21.48,-3.8 -24.52,-8.359 l -1.89,-12.352 V 234.684 c 0,-19.004 2.08,-29.457 6.07,-32.875 13.26,-5.364 27.53,-7.766 41.81,-7.032 3.23,0.379 5.13,-1.519 5.13,-4.75 z" /></clipPath><clipPath
       id="clipPath250"
       clipPathUnits="userSpaceOnUse"><path
         id="path248"
         d="M 0,0 H 14670 V 2394.33 H 0 Z" /></clipPath><clipPath
       id="clipPath260"
       clipPathUnits="userSpaceOnUse"><path
         id="path258"
         d="m 8822.33,312.594 c 0.96,-36.946 -14.24,-72.469 -41.61,-97.293 -29.12,-26 -67.22,-39.633 -106.23,-38.008 -37.41,2.516 -74.11,11.449 -108.5,26.414 -2.89,1.242 -5.98,1.949 -9.12,2.09 -7.23,0 -12.92,-7.789 -16.73,-23.371 -1.32,-4.75 -3.03,-7.031 -5.12,-7.031 -2.1,0 -5.33,3.039 -5.33,8.929 0.47,10 1.55,19.965 3.23,29.836 1.88,13.473 2.76,27.063 2.66,40.664 0,12.668 0,22.551 0,29.645 0,14.633 -1.33,23.375 -1.33,25.844 0,7.031 2.09,10.453 6.46,10.453 4.38,0 8.18,-9.313 11.59,-27.746 4.34,-28.852 18.74,-55.243 40.67,-74.489 20.42,-17.922 46.57,-27.961 73.73,-28.316 21.71,-0.629 42.79,7.285 58.72,22.043 15.46,13.488 24.21,33.078 23.94,53.59 0.82,15.945 -4.8,31.55 -15.58,43.324 -23.42,17.637 -48.5,32.973 -74.87,45.797 -37.08,17.191 -69.62,42.836 -95.01,74.871 -15.97,24.129 -24.13,52.59 -23.38,81.519 -0.91,34.965 13.53,68.575 39.53,91.973 27.1,24.66 62.76,37.754 99.38,36.484 23.86,-0.48 47.37,-5.711 69.17,-15.39 5.5,-2.684 11.41,-4.418 17.49,-5.133 6.46,0 10.83,5.512 12.92,16.723 0,3.8 2.85,5.89 5.7,5.89 2.85,0 6.65,-2.847 6.65,-8.551 0,-2.089 0,-8.171 -1.33,-19 -1.33,-10.832 -1.33,-18.054 -1.33,-24.515 -0.25,-19.039 0.64,-38.074 2.66,-57.008 0.23,-1.703 0.23,-3.426 0,-5.129 0,-3.992 -1.71,-5.89 -5.13,-5.89 -3.42,0 -7.79,6.839 -11.59,20.71 -4.51,14.731 -11.45,28.602 -20.53,41.047 -7.69,11.621 -17.64,21.575 -29.26,29.262 -13.72,7.957 -29.37,11.969 -45.22,11.594 -20.43,0.992 -40.58,-5.117 -57.01,-17.293 -14.27,-11.699 -22.16,-29.457 -21.29,-47.887 -0.01,-17.652 7.2,-34.543 19.96,-46.746 23.33,-20.559 49.19,-38.055 76.96,-52.066 33.26,-16.696 64.29,-37.508 92.35,-61.95 21.54,-23.293 32.95,-54.187 31.73,-85.89 z m -60.62,465.183 c 0,-1.332 -2.85,-4.562 -8.35,-9.691 -24.82,-25.68 -45.12,-55.359 -60.06,-87.793 -6.07,-12.668 -10.64,-19.004 -13.67,-19.004 -2.1,0 -4.57,2.473 -7.04,7.223 -22.18,39.836 -48.42,77.281 -78.29,111.734 h 60.24 c 18.65,-19.426 34.1,-41.68 45.8,-65.937 10.43,17.144 22.31,33.355 35.53,48.457 11.21,11.589 19.01,17.48 22.04,17.48 3.04,0 3.8,-1.141 3.8,-2.469 z" /></clipPath><clipPath
       id="clipPath266"
       clipPathUnits="userSpaceOnUse"><path
         id="path264"
         d="M 0,0 H 14670 V 2394.33 H 0 Z" /></clipPath><clipPath
       id="clipPath276"
       clipPathUnits="userSpaceOnUse"><path
         style="clip-rule:evenodd"
         id="path274"
         d="m 9302.53,190.027 c 0,-4.183 -7.98,-6.082 -23.94,-6.082 h -60.05 c -19,0 -32.88,0 -40.1,0 h -65.37 c -9.31,0 -14.06,1.899 -14.06,5.7 0,3.8 1.14,4.753 3.42,5.32 2.28,0.57 10.07,0 23,1.14 6.84,0 10.26,2.282 10.26,6.461 -10.78,18.02 -22.58,35.403 -35.35,52.067 l -95.01,133.019 c -4.43,4.207 -8.56,8.715 -12.35,13.493 V 237.914 c -1.34,-11.699 0.36,-23.547 4.94,-34.394 3.04,-3.614 13.87,-5.895 32.11,-6.653 10.64,0 15.96,-2.66 15.96,-6.461 0,-3.801 -3.8,-5.699 -11.59,-5.699 h -179.19 c -6.84,0 -10.26,1.898 -10.26,5.699 0,3.992 7.22,6.082 21.66,6.461 9.21,-0.949 18.48,1.117 26.41,5.891 4.45,8.73 6.18,18.594 4.94,28.312 v 371.692 c 0.56,4.554 -1.14,9.093 -4.56,12.164 -8.81,3.445 -18.31,4.808 -27.74,3.988 -12.54,0 -19,1.902 -19,6.082 0,4.18 3.04,5.512 9.12,5.512 l 78.1,-1.903 h 20.71 l 40.1,1.903 h 41.99 c 5.13,0 7.79,-1.903 7.79,-5.895 0,-3.988 -5.13,-4.75 -15.39,-5.129 -10.3,0.418 -20.58,-1.261 -30.21,-4.941 -3.23,-2.281 -4.94,-9.879 -4.94,-22.801 V 420.719 c 11.65,9.5 50.73,51.937 117.24,127.316 29.65,33.633 44.28,54.918 44.28,64.039 0,2.852 -1.9,4.75 -5.7,5.321 -10.99,1.078 -22.03,1.457 -33.07,1.14 -5.89,0 -8.93,1.899 -8.93,5.699 0,3.801 5.13,6.274 15.39,5.891 h 111.17 c 6.08,0 9.12,-2.09 9.12,-5.891 0,-3.8 -3.42,-6.461 -10.45,-6.461 -10.93,0.543 -21.89,-0.546 -32.5,-3.23 -8.03,-3.684 -15.21,-8.988 -21.09,-15.582 -39.91,-41.805 -81.65,-88.172 -125.23,-139.098 7.23,-10.261 27.88,-37.183 61.95,-80.761 23.82,-29.77 57.64,-73.161 101.48,-130.168 11.34,-16.438 24.05,-31.887 38,-46.176 7.68,-5.469 17.02,-8.09 26.41,-7.41 13.5,0.379 20.53,-1.332 20.53,-5.321 z" /></clipPath><clipPath
       id="clipPath282"
       clipPathUnits="userSpaceOnUse"><path
         id="path280"
         d="M 0,0 H 14670 V 2394.33 H 0 Z" /></clipPath><clipPath
       id="clipPath292"
       clipPathUnits="userSpaceOnUse"><path
         id="path290"
         d="m 9764.29,191.734 c 0.34,-2.98 -1.77,-5.683 -4.75,-6.078 -8.29,-0.629 -16.61,-0.629 -24.89,0 h -29.08 c -31.92,0 -53.96,1.328 -65.94,1.328 -11.97,0 -26.79,0 -38,0 -21.67,0 -36.29,-1.328 -44.09,-1.328 -11.59,0 -17.29,2.09 -17.29,6.461 0,4.371 12.16,6.649 36.68,7.031 4.6,-0.191 9.2,0.254 13.68,1.329 6.84,0 10.26,3.421 10.26,7.793 -1.86,9.253 -4.47,18.339 -7.79,27.171 l -13.49,41.997 c -2.66,9.312 -8.18,26.792 -16.73,52.257 h -61.56 c -18.06,0 -38.01,0 -57.01,0 -3.99,-8.742 -11.21,-28.125 -22.04,-58.148 l -14.26,-41.996 c -1.8,-5.016 -2.88,-10.262 -3.23,-15.582 0,-7.473 4.75,-12.223 14.26,-14.25 2.09,0 12.73,-1.332 31.73,-2.473 5.89,0 8.93,-2.281 8.93,-5.512 0,-3.23 -3.8,-5.507 -11.59,-5.507 h -114.97 c -6.08,0 -9.12,2.089 -9.12,6.461 0,4.371 6.65,4.179 20.14,5.128 11.79,-1.046 23.54,2.414 32.88,9.692 9.94,17.023 17.73,35.215 23.18,54.156 8.17,21.664 20.14,53.59 35.54,95.016 l 78.29,215.109 c 3.8,9.5 9.31,24.32 16.15,44.656 4.75,14.629 8.36,21.852 11.02,21.852 2.66,0 7.22,-9.883 14.06,-29.645 8.74,-25.336 46.75,-125.734 114.02,-301.191 8.55,-22.422 17.1,-45.227 25.84,-68.41 3.54,-13.992 11.14,-26.621 21.86,-36.293 12.86,-4.469 26.57,-5.965 40.09,-4.371 4.56,-0.762 7.22,-2.66 7.22,-6.653 z M 9558.3,342.047 c 0,1.141 -1.9,5.32 -4.56,12.16 -17.35,49.914 -30.02,85.008 -38,105.277 -2.09,5.7 -4.94,13.871 -8.74,24.704 l -4.18,11.589 c -7.8,-19.004 -17.3,-44.277 -28.32,-76.961 -12.54,-36.484 -21.47,-62.136 -27.17,-76.007 h 110.97 z" /></clipPath><clipPath
       id="clipPath298"
       clipPathUnits="userSpaceOnUse"><path
         id="path296"
         d="M 0,0 H 14670 V 2394.33 H 0 Z" /></clipPath><clipPath
       id="clipPath308"
       clipPathUnits="userSpaceOnUse"><path
         id="path306"
         d="m 10398,411.406 c 1.2,-44.75 -10.4,-88.902 -33.4,-127.316 -23.8,-37.82 -59.5,-66.688 -101.5,-82.094 -43.7,-13.465 -89.4,-19.312 -135.1,-17.289 h -157.53 c -6.46,0 -9.69,1.707 -9.69,5.129 0,4.371 5.89,6.269 18.05,5.891 18.5,0 29.67,3.23 33.67,9.691 2.5,12.941 3.4,26.172 2.4,39.336 v 328.934 c 1,11.726 -0.3,23.527 -3.8,34.777 -4.3,7.789 -15.36,11.398 -33.03,11.019 -9.31,0 -14.06,1.711 -14.06,6.461 0,4.75 2.85,5.891 8.93,5.891 h 11.59 c 25.87,0 50.97,0 75.07,0 h 80 c 78.5,0 138.6,-16.152 180.3,-48.457 52.6,-41.082 81.8,-105.32 78.1,-171.973 z m -111.7,0 c 0,71.196 -10.5,123.328 -31.5,156.391 -21.9,33.258 -59.9,52.148 -99.6,49.406 -11.1,1.008 -22.2,-0.758 -32.3,-5.129 -6.9,-4.371 -10.3,-14.441 -10.3,-30.406 V 250.453 c -1.9,-15.957 -0.2,-32.14 5.1,-47.316 10.4,-6.016 22.4,-8.485 34.2,-7.032 89.5,-0.253 134.3,71.387 134.4,214.922 z" /></clipPath><clipPath
       id="clipPath314"
       clipPathUnits="userSpaceOnUse"><path
         id="path312"
         d="M 0,0 H 14670 V 2394.33 H 0 Z" /></clipPath><clipPath
       id="clipPath324"
       clipPathUnits="userSpaceOnUse"><path
         id="path322"
         d="m 10834.9,210.547 c 0,-24.133 -15.8,-36.293 -47.1,-36.293 -35.7,-1.563 -70.3,12.281 -95,38.004 -17.2,16.621 -28.4,38.48 -31.8,62.14 l -6.4,53.207 c -1.3,25.204 -9.5,49.575 -23.6,70.5 -14.6,14.458 -34.9,21.458 -55.3,19 V 270.027 c 0,-34.207 0,-52.636 0,-55.109 -0.6,-6.453 3,-12.555 8.9,-15.199 11.1,-3.531 22.7,-4.953 34.2,-4.184 10.5,0 15.6,-2.09 15.6,-5.89 0,-3.801 -2.5,-5.129 -7.8,-5.129 h -194.2 c -6.1,0 -9.1,1.519 -9.1,4.558 0,3.422 8.7,5.512 26.4,6.461 14.6,0 23.4,4.184 25.9,10.262 1.9,8.918 2.6,18.062 2,27.176 v 333.875 c 0.4,13.254 -0.1,26.515 -1.3,39.715 -1.1,4.3 -4.2,7.812 -8.3,9.5 -9.4,2.992 -19.3,4.277 -29.1,3.8 -9.5,0 -14.3,1.903 -14.3,5.891 0,3.992 1.9,4.754 5.7,5.512 10.3,0.531 20.7,0.531 31,0 h 130 c 60.2,0 101.5,-4.75 123.3,-14.25 16.9,-6.832 31.3,-18.547 41.4,-33.637 10.2,-14.535 15.6,-31.856 15.6,-49.598 0,-41.426 -21.6,-72.019 -64.6,-91.781 -26.9,-10.52 -55.3,-16.926 -84.2,-19.004 v -3.988 c 46.9,-3.043 80.9,-15.395 102.1,-37.055 21.1,-21.664 33.8,-56.883 38,-105.656 3.4,-38.004 8.7,-63.086 16.1,-72.777 4.8,-8.168 13.2,-13.543 22.6,-14.446 6.5,0 9.7,1.711 9.7,5.133 0,1.711 -2.4,4.18 -7.4,7.031 -4.7,2.633 -7.6,7.696 -7.4,13.11 0,11.593 6.5,17.293 19,17.293 12.6,0 19.4,-6.461 19.4,-21.094 z m -163.4,326.277 c 0,55.489 -22,83.231 -66,83.231 -14.2,0 -23,-4.75 -26.6,-14.254 -3.2,-23.289 -4.3,-46.821 -3.2,-70.309 V 428.32 c 26.9,-3.015 53.8,6.192 73.2,25.082 17.1,24.262 25.1,53.817 22.6,83.422 z" /></clipPath><clipPath
       id="clipPath330"
       clipPathUnits="userSpaceOnUse"><path
         id="path328"
         d="M 0,0 H 14670 V 2394.33 H 0 Z" /></clipPath><clipPath
       id="clipPath340"
       clipPathUnits="userSpaceOnUse"><path
         style="clip-rule:evenodd"
         id="path338"
         d="m 11236.8,627.086 c 0,-3.231 -7.4,-4.941 -22,-5.512 -18.1,0 -29.1,-3.422 -32.9,-8.929 -1.8,-3.391 -2.7,-7.184 -2.7,-11.024 V 327.035 c 0,-102.109 -48.6,-153.16 -145.9,-153.16 -43.7,-2.523 -86.2,14.297 -116.3,45.984 -20.7,22.805 -31.1,63.278 -31.2,121.426 v 247.797 c 0,13.68 -2.1,22.043 -6.4,25.082 -13.1,4.797 -26.8,7.18 -40.7,7.031 -4.8,0 -7,2.282 -7,5.321 0,3.039 3.8,5.699 11.6,5.699 h 54.9 c 38,0 65.9,0 84,0 h 42 c 7.2,0 11,-2.09 11,-6.461 0,-4.371 -6.7,-5.699 -20.2,-5.699 -19,0 -29,-3.61 -30.2,-10.453 -0.9,-4.442 -1.3,-8.961 -1.3,-13.493 V 354.02 c -0.5,-22.254 0.1,-44.512 1.9,-66.7 0.7,-22.422 9.2,-43.898 23.9,-60.808 17,-15.805 39.6,-24.157 62.8,-23.184 24.9,-1.933 49.1,8.688 64.6,28.313 16.7,22.804 25,63.851 25,122.757 v 239.051 c 1.3,8.551 -2.4,17.063 -9.5,22.043 -7.8,3.242 -16.4,4.547 -24.9,3.801 -15.3,0 -22.9,3.043 -22.9,7.793 0,4.75 2.8,5.129 8.9,5.129 6.1,0 15.9,0 28.5,0 12.5,0 21.8,0 28.3,0 l 11,1.902 h 35.6 c 13.8,-1.14 20.1,-2.851 20.1,-7.031 z" /></clipPath><clipPath
       id="clipPath346"
       clipPathUnits="userSpaceOnUse"><path
         id="path344"
         d="M 0,0 H 14670 V 2394.33 H 0 Z" /></clipPath><clipPath
       id="clipPath356"
       clipPathUnits="userSpaceOnUse"><path
         id="path354"
         d="m 11586.3,323.043 c 0,-1.711 -2.5,-16.91 -7.1,-45.797 -3.6,-21.473 -7.8,-52.637 -12.9,-93.109 h -256.5 c -13.5,0 -24.9,0 -34.2,0 -12.6,0 -24,-1.141 -34.4,-1.141 -5.5,0 -8.4,1.52 -8.4,4.559 0.3,2.351 1.2,4.582 2.7,6.461 8.5,12.922 25.2,42.566 49.8,89.121 l 137,253.304 c 20.5,38.008 34.2,63.282 40.6,78.864 -10.4,0 -29.8,1.328 -58.1,1.328 -31.8,2.453 -63.5,-6.504 -89.3,-25.274 -22.3,-20.183 -39,-45.773 -48.5,-74.3 -2.5,-7.789 -5.5,-11.59 -8.9,-11.59 -3.4,0 -5.1,1.902 -5.1,5.699 0,2.953 0.6,5.863 1.9,8.555 l 23.9,115.535 c 23.2,-3.043 76.3,-4.563 159.4,-4.563 30.2,0 59.7,1.141 88.6,3.043 14.2,0 23.2,1.52 27.2,1.52 3.9,0 12.3,0 17.4,0 -6.5,-19.895 -15.1,-39.012 -25.8,-57.008 -20,-35.348 -49.5,-88.805 -88.6,-160.383 l -117.6,-217.012 c 49.6,0 77.7,0 84.8,0 28.5,-0.152 56.8,4.473 83.8,13.684 29.8,11.973 51.5,47.508 65.3,106.606 1.4,6.46 3.8,9.691 7.8,9.691 4,0 5.2,-3.231 5.2,-7.793 z m -84.6,454.922 c 0,-1.391 -2.9,-4.621 -8.6,-9.692 -24.7,-25.726 -45,-55.398 -60,-87.789 -6.1,-12.164 -10.5,-19.004 -13.5,-19.004 -3,0 -4.6,2.469 -7.2,7.219 -22.1,39.832 -48.3,77.274 -78.1,111.739 h 60 c 18.7,-19.43 34.2,-41.684 46,-65.942 10.4,17.192 22.3,33.406 35.6,48.457 11,11.594 19,17.485 21.8,17.485 2.9,0 4,-1.333 4,-2.661 z" /></clipPath><clipPath
       id="clipPath362"
       clipPathUnits="userSpaceOnUse"><path
         id="path360"
         d="M 0,0 H 14670 V 2394.33 H 0 Z" /></clipPath><clipPath
       id="clipPath372"
       clipPathUnits="userSpaceOnUse"><path
         id="path370"
         d="m 11959.1,301.953 c 0.6,-25.262 -8.2,-49.84 -24.7,-68.98 -17.8,-19.774 -41.5,-33.133 -67.7,-38.008 -21.3,-4.902 -42.9,-7.953 -64.8,-9.121 -20.1,0 -79.6,-1.328 -178.2,-1.328 -8.2,-0.52 -16.4,-0.52 -24.5,0 -1.2,0.047 -2.2,0.562 -3,1.422 -0.7,0.863 -1.1,1.996 -1,3.136 0,3.801 7,5.703 21.1,5.703 14,0 22.6,2.09 26.2,6.27 4.6,9.312 6.3,19.73 5.1,30.023 v 370.172 c 0,12.352 -10,19.004 -30,19.004 -15.4,0 -23,2.09 -23,5.508 0,3.422 4.8,5.512 14.3,5.512 h 181.4 c 99.6,0 149.4,-34.141 149.4,-102.422 0,-56.629 -37,-91.656 -111.2,-105.086 l -1.3,-2.469 c 32.4,-4.582 63.3,-16.332 90.5,-34.394 26.2,-20.352 41.5,-51.735 41.4,-84.942 z m -103.4,2.848 c 0,60.808 -17.3,96.152 -51.9,106.035 -19.2,4.414 -38.9,6.332 -58.7,5.699 v -38.004 c 0,-10.832 0,-26.031 -1.3,-45.797 0,-9.879 0,-28.504 0,-55.675 -1.7,-24.836 -0.4,-49.793 4,-74.301 3.4,-4.75 13.1,-7.031 28.9,-7.031 52.7,0.378 79,36.484 79,108.316 z m -12.3,221 c 0,62.457 -19,93.683 -57,93.683 -9.1,0.403 -18.3,-0.234 -27.2,-1.898 -9,-2.375 -14.9,-10.895 -14.1,-20.145 V 426.418 c 38,0 63.5,6.652 77.4,19.004 13.8,12.351 20.9,41.234 20.9,80.379 z" /></clipPath><clipPath
       id="clipPath378"
       clipPathUnits="userSpaceOnUse"><path
         id="path376"
         d="M 0,0 H 14670 V 2394.33 H 0 Z" /></clipPath><clipPath
       id="clipPath388"
       clipPathUnits="userSpaceOnUse"><path
         id="path386"
         d="m 12408.7,191.734 c 0.3,-2.98 -1.8,-5.683 -4.8,-6.078 -8.2,-0.629 -16.6,-0.629 -24.9,0 h -29 c -31.9,0 -54,1.328 -66,1.328 -11.9,0 -26.8,0 -38,0 -21.6,0 -36.3,-1.328 -43.9,-1.328 -11.7,0 -17.4,2.09 -17.4,6.461 0,4.371 12.1,6.649 36.6,7.031 4.6,-0.191 9.2,0.254 13.7,1.329 6.8,0 10.3,3.421 10.3,7.793 -1.9,9.234 -4.4,18.32 -7.6,27.171 l -13.7,41.997 c -2.7,9.312 -8.2,26.792 -16.7,52.257 h -62.2 c -18,0 -38,0 -57,0 -4,-8.742 -11.2,-28.125 -22,-58.148 l -14.3,-41.996 c -1.8,-5.016 -2.9,-10.262 -3.2,-15.582 0,-7.473 4.7,-12.223 14.2,-14.25 2.1,0 12.8,-1.332 31.8,-2.473 5.9,0 8.9,-2.281 8.9,-5.512 0,-3.23 -3.8,-5.507 -11.6,-5.507 H 11977 c -6.1,0 -9.2,2.089 -9.2,6.461 0,4.371 6.7,4.179 20.2,5.128 11.8,-1.046 23.5,2.414 32.8,9.692 10,17.043 17.8,35.226 23.4,54.156 l 35.6,95.016 78.1,215.109 c 3.8,9.5 9.3,24.32 16.1,44.656 4.8,14.629 8.4,21.852 11,21.852 2.7,0 7.3,-9.883 14.3,-29.645 8.6,-25.336 46.6,-125.734 114,-301.191 8.6,-22.422 17.3,-45.227 25.8,-68.41 3.5,-14.051 11.2,-26.707 22.1,-36.293 12.8,-4.492 26.4,-5.988 39.9,-4.371 5.5,-0.762 7.6,-2.66 7.6,-6.653 z m -205.4,152.024 c 0,1.14 -1.9,5.32 -4.6,12.16 -17.3,49.914 -30,85.004 -38,105.273 -2.1,5.704 -4.9,13.875 -8.5,24.704 l -4.4,11.593 c -7.8,-19.004 -17.3,-44.277 -28.3,-76.961 -12.6,-36.484 -21.5,-62.136 -27,-76.011 h 110.4 z" /></clipPath><clipPath
       id="clipPath394"
       clipPathUnits="userSpaceOnUse"><path
         id="path392"
         d="M 0,0 H 14670 V 2394.33 H 0 Z" /></clipPath><clipPath
       id="clipPath404"
       clipPathUnits="userSpaceOnUse"><path
         id="path402"
         d="M 3758.33,1254.17 H 3463.6 v 33.06 h 60.24 v 827.76 h -60.24 v 32.3 h 305.94 c 158.1,0 269.65,-80 269.65,-224.8 0,-172.35 -116.67,-247.03 -298.34,-247.03 h -49.03 v -388.98 h 66.51 z m -66.51,453.78 h 23.95 c 83.99,0 142.9,44.28 142.9,216.63 0,110.41 -12.54,190.03 -133.02,190.03 h -33.83 z" /></clipPath><clipPath
       id="clipPath410"
       clipPathUnits="userSpaceOnUse"><path
         id="path408"
         d="M 0,0 H 14670 V 2394.33 H 0 Z" /></clipPath><clipPath
       id="clipPath420"
       clipPathUnits="userSpaceOnUse"><path
         id="path418"
         d="m 4147.13,1282.48 v 459.49 h -51.5 v 28.88 c 25.08,0 57.01,0 87.79,1.52 30.78,1.52 66.51,3.99 96.72,8.17 v -498.06 h 48.84 v -28.31 h -236.96 v 28.88 z m 64.03,662.25 c -42.33,3.54 -74.89,38.94 -74.89,81.42 0,42.49 32.56,77.88 74.89,81.43 41.59,-4.5 73.1,-39.6 73.1,-81.43 0,-41.82 -31.51,-76.93 -73.1,-81.42 z" /></clipPath><clipPath
       id="clipPath426"
       clipPathUnits="userSpaceOnUse"><path
         id="path424"
         d="M 0,0 H 14670 V 2394.33 H 0 Z" /></clipPath><clipPath
       id="clipPath436"
       clipPathUnits="userSpaceOnUse"><path
         style="clip-rule:evenodd"
         id="path434"
         d="m 4394.16,1254.17 v 28.88 h 52.45 v 459.49 h -50.17 v 28.88 c 15.2,0 46.56,0 77.72,1.52 31.16,1.52 66.51,3.99 96.72,8.17 v -78.67 h 2.48 c 22.6,46.94 51.3,81.52 106.6,81.52 48.1,1.5 88.4,-36.09 90.26,-84.18 0,-38 -21.28,-77.34 -61.38,-77.34 -30.21,0 -60.23,15.2 -60.23,55.3 0,28.88 11.21,42.76 11.21,55.11 -0.09,3.16 -1.5,6.15 -3.87,8.24 -2.38,2.09 -5.52,3.1 -8.68,2.78 -22.61,0 -67.64,-57.01 -67.64,-142.14 v -318.68 h 63.84 v -28.88 z" /></clipPath><clipPath
       id="clipPath442"
       clipPathUnits="userSpaceOnUse"><path
         id="path440"
         d="M 0,0 H 14670 V 2394.33 H 0 Z" /></clipPath><clipPath
       id="clipPath452"
       clipPathUnits="userSpaceOnUse"><path
         style="clip-rule:evenodd"
         id="path450"
         d="m 5206.71,1406.19 c -21.47,-103.56 -66.51,-165.51 -168.17,-165.51 -139.1,0 -209.03,141.95 -209.03,281.43 0,118.57 85.32,260.71 217.01,260.71 94.06,0 149.17,-62.14 149.17,-133.02 0,-44.08 -23.76,-82.66 -66.32,-82.66 -17.68,-1.14 -34.98,5.54 -47.3,18.27 -12.33,12.73 -18.45,30.23 -16.74,47.86 0,68.98 55.11,59.48 55.11,85.7 0,26.23 -45.04,38.01 -68.98,38.01 -36.3,0 -78.86,-23.56 -78.86,-122.76 0,-45.6 -2.66,-84.18 -2.66,-121.42 0,-33.07 2.66,-66.32 2.66,-98.06 0,-70.31 26.22,-136.44 88.93,-136.44 67.84,0 101.67,64.8 112.88,128.27 z" /></clipPath><clipPath
       id="clipPath458"
       clipPathUnits="userSpaceOnUse"><path
         id="path456"
         d="M 0,0 H 14670 V 2394.33 H 0 Z" /></clipPath><clipPath
       id="clipPath468"
       clipPathUnits="userSpaceOnUse"><path
         style="clip-rule:evenodd"
         id="path466"
         d="M 5681.77,1254.17 H 5525 v 33.06 h 55.11 v 827.76 H 5525 v 32.3 h 238.3 l 120.28,-553.16 h 2.47 l 129.22,553.16 h 232.02 v -33.06 h -52.45 v -827.75 h 52.64 v -32.31 h -276.87 v 33.06 h 64.04 v 801.54 h -2.66 l -193.06,-834.6 h -36.3 l -183.18,852.65 h -2.47 v -819.59 h 64.79 z" /></clipPath><clipPath
       id="clipPath474"
       clipPathUnits="userSpaceOnUse"><path
         id="path472"
         d="M 0,0 H 14670 V 2394.33 H 0 Z" /></clipPath><clipPath
       id="clipPath484"
       clipPathUnits="userSpaceOnUse"><path
         style="clip-rule:evenodd"
         id="path482"
         d="m 6620.31,1315.74 c -38,-44.28 -77.72,-74.49 -136.82,-74.49 -87.6,0 -129.03,50.93 -129.03,148.98 v 351.74 h -51.49 v 28.88 c 25.08,0 57.01,0 87.79,1.52 30.79,1.52 66.51,3.99 96.53,8.17 v -418.06 c 0,-53.77 25.09,-63.27 53.97,-63.27 28.88,0 89.12,28.88 89.12,176.53 v 266.04 h -61.56 v 28.88 c 35.15,0 66.5,0 97.86,1.52 31.36,1.52 66.51,3.99 96.53,8.17 v -495.21 h 52.64 v -29.07 c -55.11,0 -127.89,-3.99 -184.33,-8.17 z" /></clipPath><clipPath
       id="clipPath490"
       clipPathUnits="userSpaceOnUse"><path
         id="path488"
         d="M 0,0 H 14670 V 2394.33 H 0 Z" /></clipPath><clipPath
       id="clipPath500"
       clipPathUnits="userSpaceOnUse"><path
         style="clip-rule:evenodd"
         id="path498"
         d="m 6882.36,1241.25 v 194.39 h 30.21 c 9.88,-108.88 51.31,-165.51 117.82,-165.51 53.97,0 86.46,26.23 86.46,86.85 0,100.71 -235.63,82.85 -235.63,264.89 0,93.87 47.5,161.52 127.89,161.52 58.91,0 72.78,-31.73 97.86,-34.58 17.48,0 21.28,19 27.55,34.58 h 23.76 v -162.85 h -28.89 c -9.88,76.01 -53.78,133.02 -117.81,133.02 -38.01,0 -73.92,-17.86 -73.92,-64.8 0,-115.92 240.76,-81.33 240.76,-266.04 0,-98.05 -42.76,-182.04 -139.29,-182.04 -60.24,0 -92.73,30.21 -112.88,30.21 -10.07,0 -16.34,-20.71 -17.48,-30.21 z" /></clipPath><clipPath
       id="clipPath506"
       clipPathUnits="userSpaceOnUse"><path
         id="path504"
         d="M 0,0 H 14670 V 2394.33 H 0 Z" /></clipPath><clipPath
       id="clipPath516"
       clipPathUnits="userSpaceOnUse"><path
         id="path514"
         d="m 7692.63,1299.21 c -20.28,-36.8 -59.69,-58.9 -101.67,-57.01 -42.56,0 -67.64,26.22 -80.19,68.98 -32.68,-42.76 -71.45,-68.98 -145.56,-68.98 -66.51,0 -114.01,41.23 -114.01,114.01 0,152.02 146.7,175.21 253.3,190.03 v 107.56 c 0,77.34 -11.4,100.71 -61.57,100.71 -30.02,0 -57,-11.02 -57,-27.55 0,-11.03 26.41,-34.59 26.41,-68.98 0,-33.16 -24.23,-61.34 -57.01,-66.32 -40.09,0 -67.65,23.56 -67.65,70.5 0,41.23 30.03,122.75 172.93,122.75 101.66,0 168.17,-42.75 168.17,-124.27 v -325.52 c 0,-26.22 6.27,-33.06 17.48,-33.06 12.18,2.49 23.47,8.2 32.69,16.53 z m -257.11,2.66 c 58.91,0 72.78,31.73 68.98,213.78 -66.5,-1.33 -124.27,-26.23 -124.27,-111.74 0,-41.43 6.27,-102.04 55.29,-102.04 z" /></clipPath><clipPath
       id="clipPath522"
       clipPathUnits="userSpaceOnUse"><path
         id="path520"
         d="M 0,0 H 14670 V 2394.33 H 0 Z" /></clipPath><clipPath
       id="clipPath532"
       clipPathUnits="userSpaceOnUse"><path
         style="clip-rule:evenodd"
         id="path530"
         d="m 7756.48,1254.17 v 28.88 h 53.59 v 459.49 h -50.17 v 28.88 c 15.01,0 46.37,0 77.72,1.52 31.35,1.52 66.51,3.99 96.53,8.17 v -78.67 h 2.47 c 22.61,46.94 51.5,81.52 106.61,81.52 48.1,1.5 88.4,-36.09 90.26,-84.18 0,-38 -21.28,-77.34 -61.38,-77.34 -30.21,0 -60.24,15.2 -60.24,55.3 0,28.88 11.21,42.76 11.21,55.11 -0.08,3.16 -1.49,6.15 -3.87,8.24 -2.37,2.09 -5.52,3.1 -8.67,2.78 -22.42,0 -67.65,-57.01 -67.65,-142.14 v -318.68 h 64.04 v -28.88 z" /></clipPath><clipPath
       id="clipPath538"
       clipPathUnits="userSpaceOnUse"><path
         id="path536"
         d="M 0,0 H 14670 V 2394.33 H 0 Z" /></clipPath><clipPath
       id="clipPath548"
       clipPathUnits="userSpaceOnUse"><path
         id="path546"
         d="m 8891.5,1323.91 c -52.67,-54.66 -124.78,-86.35 -200.66,-88.17 -149.18,0 -214.36,128.27 -214.36,235.82 0,140.81 106.61,228.03 199.34,291.12 -32.68,64.8 -80.19,142.14 -80.19,219.29 0,106.23 60.05,176.73 183,179.39 129.21,2.85 193.07,-67.65 193.07,-148.98 0,-98.06 -82.67,-157.35 -152.03,-200.1 l 165.51,-323.05 c 55.11,77.34 76.02,178.06 73.93,275.92 h -73.93 v 33.26 h 176.92 v -33.26 h -66.51 c -2.47,-103.37 -21.28,-209.03 -91.59,-314.49 l 82.85,-164.18 h 76.01 v -32.31 h -241.15 z m -201.8,407.04 c -59.1,-48.27 -84.19,-67.65 -84.19,-136.63 0,-57.01 82.85,-285.04 171.03,-285.04 38.38,-1.54 75.03,16.04 97.86,46.93 z m 119.14,106.22 c 31.36,31.74 36.3,89.69 36.3,135.11 0,118.77 -16.35,156.01 -71.45,156.01 -16.8,-0.45 -32.66,-7.84 -43.82,-20.4 -11.16,-12.57 -16.62,-29.19 -15.09,-45.92 2.14,-34.77 11.94,-68.65 28.69,-99.19 z" /></clipPath><clipPath
       id="clipPath554"
       clipPathUnits="userSpaceOnUse"><path
         id="path552"
         d="M 0,0 H 14670 V 2394.33 H 0 Z" /></clipPath><clipPath
       id="clipPath564"
       clipPathUnits="userSpaceOnUse"><path
         style="clip-rule:evenodd"
         id="path562"
         d="m 10015.3,1254.17 h -502.98 v 33.06 h 57 v 827.76 h -57 v 32.3 h 293.02 v -33.06 h -66.51 v -827.75 c 109.07,0 139.29,5.5 180.52,42.75 36.49,31.73 60.24,114.02 74.11,224.99 h 30.04 z" /></clipPath><clipPath
       id="clipPath570"
       clipPathUnits="userSpaceOnUse"><path
         id="path568"
         d="M 0,0 H 14670 V 2394.33 H 0 Z" /></clipPath><clipPath
       id="clipPath580"
       clipPathUnits="userSpaceOnUse"><path
         id="path578"
         d="M 10231,1552.89 V 1425.2 c 0,-99.2 33.8,-147.47 90.3,-147.47 76,0 135.4,44.09 152,137.96 h 30.2 c -20.2,-106.22 -89.1,-175.2 -190,-175.2 -145.4,0 -228.1,121.24 -228.1,273.06 0,136.63 85.4,269.08 218.4,269.08 116.5,0 194.4,-110.4 194.4,-230.5 z m 130.4,33.25 v 77.16 c 0,87.03 -33.9,91.02 -65.2,91.02 -43.9,0 -65.2,-28.89 -65.2,-95.02 v -72.96 z" /></clipPath><clipPath
       id="clipPath586"
       clipPathUnits="userSpaceOnUse"><path
         id="path584"
         d="M 0,0 H 14670 V 2394.33 H 0 Z" /></clipPath><clipPath
       id="clipPath596"
       clipPathUnits="userSpaceOnUse"><path
         style="clip-rule:evenodd"
         id="path594"
         d="m 11368.5,1282.48 v -28.31 h -225.8 v 28.88 h 43.9 v 372.08 c 0,48.26 -13.8,71.64 -57,71.64 -43.1,0 -85.3,-57.01 -85.3,-168.37 v -275.92 h 45.2 v -28.31 h -222.7 v 28.88 h 43.9 v 372.08 c 0,48.26 -13.9,71.64 -57,71.64 -43.1,0 -85.1,-57.01 -85.1,-168.37 v -275.92 h 46.3 v -28.31 h -232.7 v 28.88 h 52.6 l 1.3,459.49 h -53.9 v 28.88 c 23.7,0 55.1,0 86.4,1.52 31.4,1.52 66.5,3.99 96.6,8.17 v -93.68 h 2.6 c 23.9,57.37 79.4,95.22 141.6,96.53 70.3,0 106.6,-38 134.1,-96.53 24.1,57.34 79.6,95.15 141.8,96.53 96.5,0 134.2,-78.67 134.2,-154.49 v -346.42 z" /></clipPath><clipPath
       id="clipPath602"
       clipPathUnits="userSpaceOnUse"><path
         id="path600"
         d="M 0,0 H 14670 V 2394.33 H 0 Z" /></clipPath><clipPath
       id="clipPath612"
       clipPathUnits="userSpaceOnUse"><path
         style="clip-rule:evenodd"
         id="path610"
         d="m 11743.6,1315.74 c -38,-44.28 -77.7,-74.49 -136.6,-74.49 -87.8,0 -129.2,50.93 -129.2,148.98 v 351.74 h -51.4 v 28.88 c 25.1,0 57.1,0 87.8,1.52 30.8,1.52 66.4,3.99 96.6,8.17 v -418.06 c 0,-53.77 25.1,-63.27 53.8,-63.27 28.6,0 89.1,28.88 89.1,176.53 v 266.04 h -61.4 v 28.88 c 35,0 66.3,0 97.7,1.52 31.3,1.52 66.5,3.99 96.7,8.17 v -495.21 h 52.6 v -29.07 c -55.3,0 -127.9,-3.99 -184.3,-8.17 z" /></clipPath><clipPath
       id="clipPath618"
       clipPathUnits="userSpaceOnUse"><path
         id="path616"
         d="M 0,0 H 14670 V 2394.33 H 0 Z" /></clipPath><clipPath
       id="clipPath628"
       clipPathUnits="userSpaceOnUse"><path
         style="clip-rule:evenodd"
         id="path626"
         d="m 12005.6,1741.97 v 28.88 h 61 v 143.47 c 44.5,0.63 89,3.86 133.1,9.69 v -153.16 h 99 v -28.88 h -99 v -377.96 c 0,-51.12 8.7,-57.01 33.8,-57.01 25.1,0 40.1,17.86 55.1,64.8 h 28.9 c -13.9,-78.67 -60.3,-129.6 -136.6,-129.6 -90.5,0 -114.1,39.91 -114.1,128.27 v 372.45 z" /></clipPath><clipPath
       id="clipPath634"
       clipPathUnits="userSpaceOnUse"><path
         id="path632"
         d="M 0,0 H 14670 V 2394.33 H 0 Z" /></clipPath><clipPath
       id="clipPath644"
       clipPathUnits="userSpaceOnUse"><path
         style="clip-rule:evenodd"
         id="path642"
         d="m 12674.7,1514.32 c 8.8,-103.38 66.5,-245.52 178.1,-245.52 73.9,0 124.1,57.01 124.1,137.96 0,213.78 -332.2,201.43 -332.2,499.39 0,171.02 80.2,255.21 195.5,255.21 57.1,0 96.6,-22.05 142.9,-57.01 l 31.6,42.75 h 24.9 v -234.49 h -27.6 c -19,98.05 -65.2,215.3 -172.9,215.3 -74.1,0 -119.1,-41.43 -119.1,-124.28 0,-179.19 348.5,-172.35 348.5,-503.56 0,-99.2 -57,-264.71 -219.5,-264.71 -53.6,1.09 -104.5,23.37 -141.6,61.95 l -42.2,-43.14 h -19 v 260.72 z" /></clipPath><clipPath
       id="clipPath650"
       clipPathUnits="userSpaceOnUse"><path
         id="path648"
         d="M 0,0 H 14670 V 2394.33 H 0 Z" /></clipPath><clipPath
       id="clipPath660"
       clipPathUnits="userSpaceOnUse"><path
         style="clip-rule:evenodd"
         id="path658"
         d="m 13139.3,1741.97 v 28.88 h 61.4 v 143.47 c 44.5,0.62 88.9,3.85 133,9.69 v -153.16 h 99 v -28.88 h -99 v -377.96 c 0,-51.12 8.8,-57.01 33.9,-57.01 25,0 40.1,17.86 55.3,64.8 h 28.7 c -13.7,-78.67 -60.3,-129.6 -136.7,-129.6 -90.2,0 -114,39.91 -114,128.27 v 372.45 z" /></clipPath><clipPath
       id="clipPath666"
       clipPathUnits="userSpaceOnUse"><path
         id="path664"
         d="M 0,0 H 14670 V 2394.33 H 0 Z" /></clipPath><clipPath
       id="clipPath676"
       clipPathUnits="userSpaceOnUse"><path
         style="clip-rule:evenodd"
         id="path674"
         d="m 13508,1254.17 v 28.88 h 52.8 v 459.49 h -50 v 28.88 c 15.1,0 46.4,0 77.8,1.52 31.3,1.52 66.5,3.99 96.5,8.17 v -78.67 h 2.5 c 22.6,46.94 51.5,81.52 106.6,81.52 48.1,1.5 88.4,-36.09 90.2,-84.18 0,-38 -21.3,-77.34 -61.3,-77.34 -30.3,0 -60.3,15.2 -60.3,55.3 0,28.88 11.2,42.76 11.2,55.11 -0.1,3.16 -1.5,6.15 -3.8,8.24 -2.4,2.09 -5.6,3.1 -8.7,2.78 -22.4,0 -67.7,-57.01 -67.7,-142.14 v -318.68 h 64.1 v -28.88 z" /></clipPath><clipPath
       id="clipPath682"
       clipPathUnits="userSpaceOnUse"><path
         id="path680"
         d="M 0,0 H 14670 V 2394.33 H 0 Z" /></clipPath><clipPath
       id="clipPath692"
       clipPathUnits="userSpaceOnUse"><path
         style="clip-rule:evenodd"
         id="path690"
         d="m 13942,2121.26 v 29.07 c 40.1,0 124.1,6.85 185.7,9.69 v -877.54 h 52.6 v -28.31 h -234.5 v 28.88 h 48.8 v 838.78 z" /></clipPath><clipPath
       id="clipPath698"
       clipPathUnits="userSpaceOnUse"><path
         id="path696"
         d="M 0,0 H 14670 V 2394.33 H 0 Z" /></clipPath><clipPath
       id="clipPath708"
       clipPathUnits="userSpaceOnUse"><path
         id="path706"
         d="M 14396,1552.89 V 1425.2 c 0,-99.2 33.8,-147.47 90.2,-147.47 76.1,0 135.5,44.09 152.1,137.96 h 30 c -20.2,-106.22 -89.1,-175.2 -190,-175.2 -145.6,0 -228.1,121.24 -228.1,273.06 0,136.63 85.4,269.08 218.4,269.08 116.5,0 194.4,-110.4 194.4,-230.5 z m 130.3,33.25 v 77.16 c 0,87.03 -33.8,91.02 -65.1,91.02 -43.9,0 -65.2,-28.89 -65.2,-95.02 v -72.96 z" /></clipPath><clipPath
       id="clipPath714"
       clipPathUnits="userSpaceOnUse"><path
         id="path712"
         d="M 0,0 H 14670 V 2394.33 H 0 Z" /></clipPath></defs><g
     transform="matrix(1.3333333,0,0,-1.3333333,0,336)"
     id="g10"><g
       transform="scale(0.105249)"
       id="g12"><g
         id="g14"><g
           clip-path="url(#clipPath20)"
           id="g16"><g
             clip-path="url(#clipPath26)"
             id="g22"><path
               id="path28"
               style="fill:#205e7f;fill-opacity:1;fill-rule:nonzero;stroke:none"
               d="m 1765.91,847.137 h 1033.21 v 1636.12 H 1765.91 Z" /></g></g></g><g
         id="g30"><g
           clip-path="url(#clipPath36)"
           id="g32"><g
             clip-path="url(#clipPath42)"
             id="g38"><path
               id="path44"
               style="fill:#205e7f;fill-opacity:1;fill-rule:nonzero;stroke:none"
               d="m 678.418,0 h 1349.47 V 2322.5 H 678.418 Z" /></g></g></g><g
         id="g46"><g
           clip-path="url(#clipPath52)"
           id="g48"><g
             clip-path="url(#clipPath58)"
             id="g54"><path
               id="path60"
               style="fill:#ffffff;fill-opacity:1;fill-rule:nonzero;stroke:none"
               d="m 1150.99,1214.64 h 409.316 V 1720.3 H 1150.99 Z" /></g></g></g><g
         id="g62"><g
           clip-path="url(#clipPath68)"
           id="g64"><g
             clip-path="url(#clipPath74)"
             id="g70"><path
               id="path76"
               style="fill:#ffffff;fill-opacity:1;fill-rule:nonzero;stroke:none"
               d="m 774.547,1417.59 h 588.891 v 615.684 H 774.547 Z" /></g></g></g><g
         id="g78"><g
           clip-path="url(#clipPath84)"
           id="g80"><g
             clip-path="url(#clipPath90)"
             id="g86"><path
               id="path92"
               style="fill:#205e7f;fill-opacity:1;fill-rule:nonzero;stroke:none"
               d="m 988.293,1470.42 h 348.574 v 357.629 H 988.293 Z" /></g></g></g><g
         id="g94"><g
           clip-path="url(#clipPath100)"
           id="g96"><g
             clip-path="url(#clipPath106)"
             id="g102"><path
               id="path108"
               style="fill:#ffffff;fill-opacity:1;fill-rule:nonzero;stroke:none"
               d="m 1344.43,1417.59 h 588.891 v 615.684 H 1344.43 Z" /></g></g></g><g
         id="g110"><g
           clip-path="url(#clipPath116)"
           id="g112"><g
             clip-path="url(#clipPath122)"
             id="g118"><path
               id="path124"
               style="fill:#205e7f;fill-opacity:1;fill-rule:nonzero;stroke:none"
               d="m 1371,1470.42 h 348.387 v 357.629 H 1371 Z" /></g></g></g><g
         id="g126"><g
           clip-path="url(#clipPath132)"
           id="g128"><g
             clip-path="url(#clipPath138)"
             id="g134"><path
               id="path140"
               style="fill:#205e7f;fill-opacity:1;fill-rule:nonzero;stroke:none"
               d="m 0,850.938 h 949.18 v 1633.46 H 0 Z" /></g></g></g><g
         id="g142"><g
           clip-path="url(#clipPath148)"
           id="g144"><g
             clip-path="url(#clipPath154)"
             id="g150"><path
               id="path156"
               style="fill:#ffffff;fill-opacity:1;fill-rule:nonzero;stroke:none"
               d="m 5653.93,82.4844 h 607.566 v 651.445 H 5653.93 Z" /></g></g></g><g
         id="g158"><g
           clip-path="url(#clipPath164)"
           id="g160"><g
             clip-path="url(#clipPath170)"
             id="g166"><path
               id="path172"
               style="fill:#ffffff;fill-opacity:1;fill-rule:nonzero;stroke:none"
               d="m 6097.93,89.3008 h 627.59 v 637.547 h -627.59 z" /></g></g></g><g
         id="g174"><g
           clip-path="url(#clipPath180)"
           id="g176"><g
             clip-path="url(#clipPath186)"
             id="g182"><path
               id="path188"
               style="fill:#ffffff;fill-opacity:1;fill-rule:nonzero;stroke:none"
               d="m 6520.36,85.7031 h 622.906 v 642.668 H 6520.36 Z" /></g></g></g><g
         id="g190"><g
           clip-path="url(#clipPath196)"
           id="g192"><g
             clip-path="url(#clipPath202)"
             id="g198"><path
               id="path204"
               style="fill:#ffffff;fill-opacity:1;fill-rule:nonzero;stroke:none"
               d="m 6962.36,85.6797 h 556.207 v 645.352 H 6962.36 Z" /></g></g></g><g
         id="g206"><g
           clip-path="url(#clipPath212)"
           id="g208"><g
             clip-path="url(#clipPath218)"
             id="g214"><path
               id="path220"
               style="fill:#ffffff;fill-opacity:1;fill-rule:nonzero;stroke:none"
               d="m 7342.41,87.0313 h 573.5 v 638.867 h -573.5 z" /></g></g></g><g
         id="g222"><g
           clip-path="url(#clipPath228)"
           id="g224"><g
             clip-path="url(#clipPath234)"
             id="g230"><path
               id="path236"
               style="fill:#ffffff;fill-opacity:1;fill-rule:nonzero;stroke:none"
               d="m 7737.29,84.9414 h 644.379 v 644.188 H 7737.29 Z" /></g></g></g><g
         id="g238"><g
           clip-path="url(#clipPath244)"
           id="g240"><g
             clip-path="url(#clipPath250)"
             id="g246"><path
               id="path252"
               style="fill:#ffffff;fill-opacity:1;fill-rule:nonzero;stroke:none"
               d="m 8210.63,89.3438 h 396.02 v 636.867 h -396.02 z" /></g></g></g><g
         id="g254"><g
           clip-path="url(#clipPath260)"
           id="g256"><g
             clip-path="url(#clipPath266)"
             id="g262"><path
               id="path268"
               style="fill:#ffffff;fill-opacity:1;fill-rule:nonzero;stroke:none"
               d="m 8434.68,80.3828 h 482.754 v 794.875 H 8434.68 Z" /></g></g></g><g
         id="g270"><g
           clip-path="url(#clipPath276)"
           id="g272"><g
             clip-path="url(#clipPath282)"
             id="g278"><path
               id="path284"
               style="fill:#ffffff;fill-opacity:1;fill-rule:nonzero;stroke:none"
               d="m 8749.93,88.9336 h 647.609 v 636.586 H 8749.93 Z" /></g></g></g><g
         id="g286"><g
           clip-path="url(#clipPath292)"
           id="g288"><g
             clip-path="url(#clipPath298)"
             id="g294"><path
               id="path300"
               style="fill:#ffffff;fill-opacity:1;fill-rule:nonzero;stroke:none"
               d="m 9228.99,90.1719 h 630.352 v 643.137 H 9228.99 Z" /></g></g></g><g
         id="g302"><g
           clip-path="url(#clipPath308)"
           id="g304"><g
             clip-path="url(#clipPath314)"
             id="g310"><path
               id="path316"
               style="fill:#ffffff;fill-opacity:1;fill-rule:nonzero;stroke:none"
               d="m 9865.77,89.3008 h 627.586 v 637.547 H 9865.77 Z" /></g></g></g><g
         id="g318"><g
           clip-path="url(#clipPath324)"
           id="g320"><g
             clip-path="url(#clipPath330)"
             id="g326"><path
               id="path332"
               style="fill:#ffffff;fill-opacity:1;fill-rule:nonzero;stroke:none"
               d="m 10328.3,79.1211 h 601.621 v 647.555 H 10328.3 Z" /></g></g></g><g
         id="g334"><g
           clip-path="url(#clipPath340)"
           id="g336"><g
             clip-path="url(#clipPath346)"
             id="g342"><path
               id="path348"
               style="fill:#ffffff;fill-opacity:1;fill-rule:nonzero;stroke:none"
               d="m 10736.7,78.6133 h 595.164 v 650.516 H 10736.7 Z" /></g></g></g><g
         id="g350"><g
           clip-path="url(#clipPath356)"
           id="g352"><g
             clip-path="url(#clipPath362)"
             id="g358"><path
               id="path364"
               style="fill:#ffffff;fill-opacity:1;fill-rule:nonzero;stroke:none"
               d="m 11137.8,87.9805 h 543.477 v 787.469 H 11137.8 Z" /></g></g></g><g
         id="g366"><g
           clip-path="url(#clipPath372)"
           id="g368"><g
             clip-path="url(#clipPath378)"
             id="g374"><path
               id="path380"
               style="fill:#ffffff;fill-opacity:1;fill-rule:nonzero;stroke:none"
               d="m 11499.6,89.1133 h 554.52 v 637.164 h -554.52 z" /></g></g></g><g
         id="g382"><g
           clip-path="url(#clipPath388)"
           id="g384"><g
             clip-path="url(#clipPath394)"
             id="g390"><path
               id="path396"
               style="fill:#ffffff;fill-opacity:1;fill-rule:nonzero;stroke:none"
               d="m 11872.8,90.1719 h 630.918 v 643.137 H 11872.8 Z" /></g></g></g><g
         id="g398"><g
           clip-path="url(#clipPath404)"
           id="g400"><g
             clip-path="url(#clipPath410)"
             id="g406"><path
               id="path412"
               style="fill:#ffffff;fill-opacity:1;fill-rule:nonzero;stroke:none"
               d="m 3368.59,1159.16 h 765.613 V 2242.31 H 3368.59 Z" /></g></g></g><g
         id="g414"><g
           clip-path="url(#clipPath420)"
           id="g416"><g
             clip-path="url(#clipPath426)"
             id="g422"><path
               id="path428"
               style="fill:#ffffff;fill-opacity:1;fill-rule:nonzero;stroke:none"
               d="m 3997,1159.16 h 426.988 V 2202.59 H 3997 Z" /></g></g></g><g
         id="g430"><g
           clip-path="url(#clipPath436)"
           id="g432"><g
             clip-path="url(#clipPath442)"
             id="g438"><path
               id="path444"
               style="fill:#ffffff;fill-opacity:1;fill-rule:nonzero;stroke:none"
               d="m 4299.14,1159.16 h 566.09 v 719.863 h -566.09 z" /></g></g></g><g
         id="g446"><g
           clip-path="url(#clipPath452)"
           id="g448"><g
             clip-path="url(#clipPath458)"
             id="g454"><path
               id="path460"
               style="fill:#ffffff;fill-opacity:1;fill-rule:nonzero;stroke:none"
               d="m 4734.5,1145.67 h 567.227 v 732.168 H 4734.5 Z" /></g></g></g><g
         id="g462"><g
           clip-path="url(#clipPath468)"
           id="g464"><g
             clip-path="url(#clipPath474)"
             id="g470"><path
               id="path476"
               style="fill:#ffffff;fill-opacity:1;fill-rule:nonzero;stroke:none"
               d="m 5429.99,1159.16 h 912.504 V 2242.31 H 5429.99 Z" /></g></g></g><g
         id="g478"><g
           clip-path="url(#clipPath484)"
           id="g480"><g
             clip-path="url(#clipPath490)"
             id="g486"><path
               id="path492"
               style="fill:#ffffff;fill-opacity:1;fill-rule:nonzero;stroke:none"
               d="m 6207.96,1146.23 h 702.906 v 729.32 H 6207.96 Z" /></g></g></g><g
         id="g494"><g
           clip-path="url(#clipPath500)"
           id="g496"><g
             clip-path="url(#clipPath506)"
             id="g502"><path
               id="path508"
               style="fill:#ffffff;fill-opacity:1;fill-rule:nonzero;stroke:none"
               d="m 6786.21,1145.67 h 487.227 v 732.738 H 6786.21 Z" /></g></g></g><g
         id="g510"><g
           clip-path="url(#clipPath516)"
           id="g512"><g
             clip-path="url(#clipPath522)"
             id="g518"><path
               id="path524"
               style="fill:#ffffff;fill-opacity:1;fill-rule:nonzero;stroke:none"
               d="m 7156.19,1147.07 h 631.453 v 732.852 H 7156.19 Z" /></g></g></g><g
         id="g526"><g
           clip-path="url(#clipPath532)"
           id="g528"><g
             clip-path="url(#clipPath538)"
             id="g534"><path
               id="path540"
               style="fill:#ffffff;fill-opacity:1;fill-rule:nonzero;stroke:none"
               d="m 7661.46,1159.16 h 567.035 v 719.863 H 7661.46 Z" /></g></g></g><g
         id="g542"><g
           clip-path="url(#clipPath548)"
           id="g544"><g
             clip-path="url(#clipPath554)"
             id="g550"><path
               id="path556"
               style="fill:#ffffff;fill-opacity:1;fill-rule:nonzero;stroke:none"
               d="m 8381.47,1140.73 h 876.398 V 2256.45 H 8381.47 Z" /></g></g></g><g
         id="g558"><g
           clip-path="url(#clipPath564)"
           id="g560"><g
             clip-path="url(#clipPath570)"
             id="g566"><path
               id="path572"
               style="fill:#ffffff;fill-opacity:1;fill-rule:nonzero;stroke:none"
               d="m 9417.3,1159.16 h 701.195 V 2242.31 H 9417.3 Z" /></g></g></g><g
         id="g574"><g
           clip-path="url(#clipPath580)"
           id="g576"><g
             clip-path="url(#clipPath586)"
             id="g582"><path
               id="path588"
               style="fill:#ffffff;fill-opacity:1;fill-rule:nonzero;stroke:none"
               d="m 9990.42,1145.48 h 608.082 v 732.168 H 9990.42 Z" /></g></g></g><g
         id="g590"><g
           clip-path="url(#clipPath596)"
           id="g592"><g
             clip-path="url(#clipPath602)"
             id="g598"><path
               id="path604"
               style="fill:#ffffff;fill-opacity:1;fill-rule:nonzero;stroke:none"
               d="m 10487.1,1159.16 h 976.355 v 719.82 H 10487.1 Z" /></g></g></g><g
         id="g606"><g
           clip-path="url(#clipPath612)"
           id="g608"><g
             clip-path="url(#clipPath618)"
             id="g614"><path
               id="path620"
               style="fill:#ffffff;fill-opacity:1;fill-rule:nonzero;stroke:none"
               d="m 11331.4,1146.23 h 702.906 v 729.32 H 11331.4 Z" /></g></g></g><g
         id="g622"><g
           clip-path="url(#clipPath628)"
           id="g624"><g
             clip-path="url(#clipPath634)"
             id="g630"><path
               id="path636"
               style="fill:#ffffff;fill-opacity:1;fill-rule:nonzero;stroke:none"
               d="m 11910.6,1147.19 h 501.859 v 871.836 H 11910.6 Z" /></g></g></g><g
         id="g638"><g
           clip-path="url(#clipPath644)"
           id="g640"><g
             clip-path="url(#clipPath650)"
             id="g646"><path
               id="path652"
               style="fill:#ffffff;fill-opacity:1;fill-rule:nonzero;stroke:none"
               d="m 12549.7,1140.34 h 613.781 V 2256.36 H 12549.7 Z" /></g></g></g><g
         id="g654"><g
           clip-path="url(#clipPath660)"
           id="g656"><g
             clip-path="url(#clipPath666)"
             id="g662"><path
               id="path668"
               style="fill:#ffffff;fill-opacity:1;fill-rule:nonzero;stroke:none"
               d="m 13044.3,1147.19 h 502.238 v 871.836 H 13044.3 Z" /></g></g></g><g
         id="g670"><g
           clip-path="url(#clipPath676)"
           id="g672"><g
             clip-path="url(#clipPath682)"
             id="g678"><path
               id="path684"
               style="fill:#ffffff;fill-opacity:1;fill-rule:nonzero;stroke:none"
               d="m 13413,1159.16 h 566.469 v 719.863 H 13413 Z" /></g></g></g><g
         id="g686"><g
           clip-path="url(#clipPath692)"
           id="g688"><g
             clip-path="url(#clipPath698)"
             id="g694"><path
               id="path700"
               style="fill:#ffffff;fill-opacity:1;fill-rule:nonzero;stroke:none"
               d="m 13847,1159.16 h 428.32 V 2255.04 H 13847 Z" /></g></g></g><g
         id="g702"><g
           clip-path="url(#clipPath708)"
           id="g704"><g
             clip-path="url(#clipPath714)"
             id="g710"><path
               id="path716"
               style="fill:#ffffff;fill-opacity:1;fill-rule:nonzero;stroke:none"
               d="m 14155.2,1145.48 h 608.082 v 732.168 H 14155.2 Z" /></g></g></g></g></g></svg>